<svg width="215" height="66" viewBox="0 0 215 66" fill="none" xmlns="http://www.w3.org/2000/svg">
<mask id="mask0_678_396" style="mask-type:luminance" maskUnits="userSpaceOnUse" x="0" y="6" width="78" height="60">
<path d="M78.0001 6H0V66H78.0001V6Z" fill="white"/>
</mask>
<g mask="url(#mask0_678_396)">
<path opacity="0.8" d="M58.4465 45.9405C65.873 46.7097 72.7872 38.704 73.8897 28.0594C74.9922 17.4147 69.8656 8.16192 62.4391 7.39273C55.0126 6.62355 48.0984 14.6292 46.9959 25.2739C45.8934 35.9186 51.02 45.1713 58.4465 45.9405Z" fill="#FDC040"/>
<path d="M47.3154 51.0417C54.3811 48.6293 57.306 38.4636 53.8482 28.336C50.3904 18.2084 41.8594 11.954 34.7937 14.3664C27.7279 16.7787 24.8031 26.9444 28.2608 37.072C31.7186 47.1997 40.2496 53.4541 47.3154 51.0417Z" fill="#FDC040"/>
<path d="M27 39H75.0709C75.4546 39.1667 76.337 39.8 76.7973 41C77.3728 42.5 79 64.5 51.5 60C29.8624 60 24.8134 59.3333 25.0052 59C29 58 29.5 54 30 51C30.5 48 27 39 27 39Z" fill="#3DA3B1"/>
<path d="M63.1172 18.4336C62.486 18.4336 61.9746 18.9452 61.9746 19.5762V19.7587C61.9746 20.3899 62.486 20.9013 63.1172 20.9013C63.7484 20.9013 64.2598 20.3899 64.2598 19.7587V19.5762C64.2598 18.945 63.7484 18.4336 63.1172 18.4336Z" fill="#253D4E"/>
<path d="M66.0845 23.5312C65.4534 23.5312 64.9419 24.0426 64.9419 24.6737V24.8562C64.9419 25.4873 65.4534 25.9988 66.0845 25.9988C66.7157 25.9988 67.2271 25.4874 67.2271 24.8562V24.6737C67.2271 24.0426 66.7157 23.5312 66.0845 23.5312Z" fill="#253D4E"/>
<path d="M41.0669 22.4558L40.9823 22.2939C40.6903 21.7343 39.9997 21.5175 39.4408 21.8097C38.8813 22.1018 38.6646 22.7919 38.9566 23.3513L39.0412 23.5132C39.2448 23.9038 39.6429 24.1275 40.0549 24.1275C40.2331 24.1275 40.4138 24.0857 40.5827 23.9974C41.1421 23.7053 41.3589 23.0152 41.0669 22.4558Z" fill="#253D4E"/>
<path d="M46.0566 25.6004L45.972 25.4385C45.68 24.8789 44.9896 24.6621 44.4305 24.9543C43.871 25.2464 43.6543 25.9365 43.9463 26.4959L44.0309 26.6579C44.2345 27.0485 44.6325 27.2721 45.0446 27.2721C45.2228 27.2721 45.4035 27.2304 45.5724 27.142C46.1318 26.85 46.3486 26.1598 46.0566 25.6004Z" fill="#253D4E"/>
<path d="M38.9472 48.335L35.5487 44.9363C35.1024 44.4901 34.3789 44.49 33.933 44.9362C33.4866 45.3824 33.4866 46.1059 33.9328 46.5519L37.3313 49.9506C37.5545 50.1738 37.8467 50.2853 38.1392 50.2853C38.4315 50.2853 38.724 50.1738 38.9471 49.9508C39.3934 49.5045 39.3934 48.7811 38.9472 48.335Z" fill="#253D4E"/>
<path d="M49.0455 46.2028C48.6797 45.6888 47.9665 45.5684 47.4521 45.9346L35.5913 54.3788C35.0773 54.7447 34.9572 55.4582 35.3232 55.9722C35.546 56.2854 35.8976 56.4522 36.2549 56.4522C36.484 56.4522 36.7156 56.3834 36.9165 56.2403L48.7773 47.7961C49.2913 47.4302 49.4114 46.7168 49.0455 46.2028Z" fill="#253D4E"/>
<path d="M53.2385 47.9293C52.8729 47.4153 52.1595 47.295 51.6451 47.6612L47.0923 50.9025C46.5782 51.2687 46.4583 51.982 46.8242 52.496C47.0471 52.8092 47.3987 52.9761 47.7559 52.9761C47.9851 52.9761 48.2165 52.9072 48.4176 52.764L52.9704 49.5227C53.4845 49.1568 53.6044 48.4434 53.2385 47.9293Z" fill="#253D4E"/>
<path d="M77.7842 42.7425C77.4149 42.2306 76.701 42.1151 76.189 42.4839L75.8084 42.7583C75.81 42.6603 75.8122 42.5625 75.8122 42.4643C75.8122 41.3743 75.3881 40.3487 74.6157 39.5742C73.8435 38.8039 72.8178 38.3798 71.7279 38.3798H71.3897C72.6436 35.957 73.2803 33.0396 73.2803 29.6717C73.2803 23.0668 70.8044 15.8472 66.9728 11.2792C66.5671 10.7956 65.8465 10.7323 65.3631 11.1381C64.8797 11.5437 64.8165 12.2644 65.222 12.7478C68.7291 16.9287 70.9953 23.5719 70.9953 29.6717C70.9953 33.1871 70.2396 36.113 68.7493 38.3798H66.4871L67.4922 37.6642C68.0064 37.2983 68.1263 36.5848 67.7604 36.0708C67.3946 35.5568 66.6815 35.4365 66.167 35.8027L62.5473 38.3798H55.7509C56.4358 34.9104 55.7224 31.0345 53.6525 27.0696C52.1708 24.2323 50.0665 21.4869 47.6459 19.1609C50.1391 12.8546 54.2652 8.82033 58.2856 8.82033C59.4998 8.82033 60.7234 9.17361 61.9222 9.87074C62.4678 10.1876 63.1672 10.0025 63.4844 9.45713C63.8014 8.91158 63.6163 8.21217 63.0708 7.89499C61.5185 6.99265 59.9085 6.53516 58.2856 6.53516C53.4217 6.53516 48.7447 10.7146 45.8366 17.5503C44.8461 16.7353 43.8196 15.9942 42.7739 15.3485C37.8518 12.3086 33.1909 11.6526 29.6503 13.501C26.3845 15.2077 24.2927 18.9921 23.7598 24.157C23.6949 24.7847 24.1513 25.3461 24.7789 25.4107C25.4081 25.4765 25.9681 25.019 26.0326 24.3915C26.4843 20.0145 28.1448 16.8661 30.708 15.5264C36.9487 12.2684 47.2551 19.7561 51.6268 28.1273C53.5712 31.8518 54.1694 35.296 53.4124 38.3799H40.6019C40.5987 38.3799 40.5957 38.3799 40.5925 38.3799H34.7376L32.82 36.4624C32.3736 36.0163 31.6503 36.0163 31.2041 36.4624C30.7579 36.9087 30.7579 37.6321 31.2041 38.0783L31.5056 38.3798H28.3688C27.0961 35.4872 26.2594 32.1656 26 28.9434C25.9494 28.3145 25.3991 27.8442 24.7695 27.8962C24.1405 27.9468 23.6717 28.4976 23.7223 29.1267C23.933 31.7452 24.4735 34.3507 25.3077 36.8097C22.0512 34.0347 17.7976 32.5434 13.4181 32.7813C13.0099 32.8035 12.6445 33.0422 12.4604 33.4071C10.7421 36.8094 10.259 40.6497 10.9716 44.2865C10.9783 44.3968 11.0001 44.5027 11.0358 44.6021C11.2597 45.6398 11.5827 46.6588 12.0019 47.6449C7.11142 48.4034 2.76853 51.286 0.165419 55.5799C-0.0464928 55.9294 -0.0553288 56.3656 0.141958 56.7237C1.98304 60.065 4.88506 62.6321 8.29438 64.0948C8.38533 64.1481 8.48024 64.1885 8.57789 64.2144C10.4607 64.982 12.491 65.4158 14.5789 65.4589C14.6933 65.4613 14.8065 65.4624 14.9206 65.4624C15.7333 65.4624 16.5385 65.401 17.3317 65.2857C17.4064 65.2812 17.4806 65.2716 17.5526 65.2529C20.9109 64.7186 24.0331 63.1765 26.498 60.8594C26.5539 60.8678 26.6106 60.8736 26.6688 60.8736H31.7958C32.4269 60.8736 32.9384 60.3622 32.9384 59.731C32.9384 59.0999 32.4269 58.5884 31.7958 58.5884H28.5152C28.815 58.182 29.0991 57.7614 29.3636 57.325C29.3717 57.3116 29.3782 57.2976 29.3857 57.2841C29.3925 57.2717 29.4008 57.2605 29.4072 57.2477C32.0685 51.9753 31.7673 45.6518 28.6403 40.6649H33.7907L36.9015 43.7757C37.1246 43.9987 37.4171 44.1102 37.7095 44.1102C38.0018 44.1102 38.2943 43.9987 38.5175 43.7757C38.9637 43.3293 38.9637 42.606 38.5175 42.1597L37.0227 40.6649H40.124L44.3659 44.9068C44.5891 45.1299 44.8816 45.2414 45.1739 45.2414C45.4663 45.2414 45.7588 45.1299 45.982 44.9068C46.4282 44.4605 46.4282 43.7371 45.982 43.2909L43.3561 40.6651H54.2707L54.2745 40.6654L54.2783 40.6651H59.3379L56.8434 42.441C56.3292 42.8069 56.2093 43.5203 56.5752 44.0343C56.7981 44.3476 57.1497 44.5144 57.507 44.5144C57.7361 44.5144 57.9675 44.4455 58.1686 44.3023L63.2776 40.6649H69.3446L69.3466 40.6651L69.3492 40.6649H71.7287C72.2093 40.6649 72.6619 40.8522 73.0007 41.1899C73.3406 41.5307 73.5278 41.9833 73.5278 42.4641C73.5278 43.152 73.4843 43.8297 73.4003 44.4952L65.0107 50.5445C64.499 50.9136 64.3832 51.6277 64.7522 52.1397C64.9757 52.4494 65.3253 52.6141 65.68 52.6141C65.9115 52.6141 66.1452 52.5439 66.3474 52.3982L72.5835 47.9018C71.3376 51.3688 68.936 54.289 65.8453 56.196L53.1032 43.4539C52.6568 43.0078 51.9335 43.0078 51.4872 43.4539C51.041 43.9003 51.041 44.6236 51.4872 45.0698L63.7173 57.2999C62.0612 58.0074 60.2634 58.4448 58.3795 58.5578L53.3982 53.5768C52.9522 53.1307 52.2287 53.1305 51.7825 53.5769C51.3363 54.0231 51.3363 54.7465 51.7826 55.1927L55.1782 58.5881H43.9925L42.1593 56.755C41.713 56.3089 40.9896 56.3089 40.5434 56.755C40.0972 57.2013 40.0972 57.9247 40.5434 58.3709L40.7606 58.5881H36.5561C35.9249 58.5881 35.4135 59.0996 35.4135 59.7307C35.4135 60.3619 35.9249 60.8733 36.5561 60.8733H43.0448L45.6218 63.4504C45.845 63.6734 46.1375 63.7849 46.4299 63.7849C46.7222 63.7849 47.0147 63.6734 47.2379 63.4504C47.6841 63.004 47.6841 62.2807 47.2379 61.8344L46.2767 60.8733H57.4014C60.2819 60.8733 63.0097 60.2077 65.44 59.0234L66.3998 59.9832C66.623 60.2062 66.9155 60.3177 67.2078 60.3177C67.5002 60.3177 67.7927 60.2062 68.0159 59.9832C68.4621 59.5368 68.4621 58.8135 68.0159 58.3672L67.4985 57.8499C71.618 55.1378 74.5889 50.8183 75.5105 45.7906L77.5258 44.3375C78.0374 43.9685 78.1532 43.2545 77.7842 42.7425ZM26.5598 41.6498C26.688 41.8459 26.8092 42.0453 26.9271 42.2463L24.0349 47.9852L20.7325 42.932L23.0437 37.9264C24.4087 38.9377 25.606 40.1904 26.5598 41.6498ZM22.7837 50.2477L16.4847 50.5649C16.0601 50.0751 15.6651 49.555 15.3055 49.0047C14.5542 47.855 13.9809 46.6186 13.586 45.3361L19.5107 45.2394L22.7837 50.2477ZM21.0907 36.7047L19.2575 40.6748L15.614 35.0996C17.5407 35.2707 19.4009 35.8237 21.0907 36.7047ZM13.7004 36.3484L18.033 42.978L13.0787 43.0589C12.7652 40.822 12.969 38.5202 13.7004 36.3484ZM13.1098 49.8062C13.2017 49.9566 13.2957 50.1063 13.3925 50.2547C13.9002 51.0315 14.4679 51.7568 15.0859 52.4288C15.131 52.4875 15.1817 52.5414 15.237 52.5903C16.2633 53.6773 17.4242 54.6173 18.6844 55.3909L12.6729 55.2673L9.83869 50.527C10.8882 50.1645 11.9846 49.9206 13.1098 49.8062ZM7.72674 51.4476L9.97717 55.2117L3.31545 55.0748C4.54304 53.5754 6.04501 52.3467 7.72674 51.4476ZM8.45997 61.6582C6.43608 60.655 4.65045 59.1882 3.2702 57.3593L11.188 57.5222L8.45997 61.6582ZM16.5787 63.0806C15.9347 63.1551 15.2824 63.1873 14.6253 63.1743C13.2522 63.1458 11.9078 62.9216 10.6264 62.5241L13.8889 57.5776L19.8704 57.7006L16.5787 63.0806ZM19.6943 62.3669L22.516 57.7551L25.9844 57.8264C26.0557 57.833 26.1273 57.8377 26.1988 57.8433C24.4794 59.9306 22.218 61.4897 19.6943 62.3669ZM26.1179 55.5437C23.4668 55.2839 20.9464 54.3009 18.8297 52.7349L24.2311 52.4628L26.2462 55.5463L26.1179 55.5437ZM28.1656 54.3062L25.4796 50.1961L28.1456 44.9059C29.1774 47.9344 29.1945 51.2491 28.1656 54.3062Z" fill="#253D4E"/>
<path d="M66.5712 44.7008C66.202 44.1889 65.4879 44.0735 64.9762 44.4424L60.9499 47.3457C60.4381 47.7147 60.3224 48.4287 60.6915 48.9407C60.9148 49.2504 61.2645 49.4151 61.6191 49.4151C61.8508 49.4151 62.0844 49.3449 62.2865 49.1991L66.3129 46.2959C66.8246 45.9269 66.9404 45.2128 66.5712 44.7008Z" fill="#253D4E"/>
</g>
<path d="M95.0331 61.0007L95.0222 55.9431L92.5152 60.1287H91.883L89.376 56.0085V61.0007H88.0244V53.3707H89.1907L92.2209 58.4283L95.1966 53.3707H96.3629L96.3738 61.0007H95.0331ZM104.474 59.2349H100.659L99.9063 61.0007H98.4457L101.879 53.3707H103.275L106.719 61.0007H105.237L104.474 59.2349ZM104.005 58.1231L102.566 54.7877L101.138 58.1231H104.005ZM113.772 61.0007L112.213 58.7662C112.147 58.7735 112.049 58.7771 111.919 58.7771H110.196V61.0007H108.779V53.3707H111.919C112.58 53.3707 113.154 53.4797 113.641 53.6977C114.135 53.9157 114.513 54.2282 114.774 54.6351C115.036 55.042 115.167 55.5253 115.167 56.0848C115.167 56.6589 115.025 57.153 114.742 57.5672C114.465 57.9814 114.066 58.2902 113.543 58.4937L115.298 61.0007H113.772ZM113.739 56.0848C113.739 55.5979 113.579 55.2237 113.259 54.9621C112.939 54.7005 112.471 54.5697 111.853 54.5697H110.196V57.6108H111.853C112.471 57.6108 112.939 57.48 113.259 57.2184C113.579 56.9495 113.739 56.5717 113.739 56.0848ZM119.283 54.5697H116.755V53.3707H123.229V54.5697H120.7V61.0007H119.283V54.5697ZM135.208 61.1206L134.248 60.1941C133.536 60.8045 132.682 61.1097 131.687 61.1097C131.156 61.1097 130.68 61.0225 130.259 60.8481C129.837 60.6737 129.507 60.4339 129.267 60.1287C129.027 59.8162 128.907 59.4638 128.907 59.0714C128.907 58.5991 129.045 58.1849 129.322 57.8288C129.598 57.4655 130.048 57.1094 130.673 56.7606C130.368 56.4554 130.15 56.172 130.019 55.9104C129.888 55.6415 129.823 55.3654 129.823 55.082C129.823 54.5443 130.023 54.1119 130.422 53.7849C130.829 53.4506 131.367 53.2835 132.036 53.2835C132.653 53.2835 133.147 53.4361 133.518 53.7413C133.889 54.0392 134.074 54.4462 134.074 54.9621C134.074 55.3545 133.95 55.7033 133.703 56.0085C133.464 56.3137 133.068 56.6225 132.515 56.935L134.161 58.5046C134.343 58.1485 134.485 57.7198 134.586 57.2184L135.687 57.5781C135.542 58.2539 135.313 58.8352 135 59.3221L135.96 60.2377L135.208 61.1206ZM132.036 54.2536C131.738 54.2536 131.502 54.3299 131.327 54.4825C131.153 54.6278 131.066 54.8204 131.066 55.0602C131.066 55.2346 131.113 55.4017 131.207 55.5616C131.302 55.7142 131.483 55.9249 131.752 56.1938C132.188 55.954 132.49 55.7469 132.657 55.5725C132.831 55.3908 132.919 55.1946 132.919 54.9839C132.919 54.7586 132.839 54.5806 132.679 54.4498C132.526 54.319 132.312 54.2536 132.036 54.2536ZM131.785 59.9979C132.417 59.9979 132.969 59.8053 133.442 59.4202L131.425 57.4909C130.989 57.7307 130.68 57.9632 130.499 58.1885C130.324 58.4065 130.237 58.6536 130.237 58.9297C130.237 59.2494 130.379 59.5074 130.662 59.7036C130.946 59.8998 131.32 59.9979 131.785 59.9979ZM147.584 57.0985H148.924V60.1396C148.532 60.4521 148.074 60.6919 147.551 60.859C147.028 61.0261 146.49 61.1097 145.938 61.1097C145.16 61.1097 144.459 60.9426 143.834 60.6083C143.209 60.2668 142.719 59.7981 142.363 59.2022C142.006 58.6063 141.828 57.9342 141.828 57.1857C141.828 56.4372 142.006 55.7651 142.363 55.1692C142.719 54.5733 143.209 54.1083 143.834 53.774C144.466 53.4325 145.175 53.2617 145.96 53.2617C146.599 53.2617 147.18 53.3671 147.704 53.5778C148.227 53.7885 148.666 54.0974 149.022 54.5043L148.129 55.3763C147.547 54.795 146.846 54.5043 146.025 54.5043C145.487 54.5043 145.008 54.6169 144.586 54.8422C144.172 55.0675 143.845 55.3836 143.605 55.7905C143.373 56.1974 143.256 56.6625 143.256 57.1857C143.256 57.6944 143.373 58.1522 143.605 58.5591C143.845 58.966 144.172 59.2858 144.586 59.5183C145.008 59.7508 145.484 59.8671 146.014 59.8671C146.61 59.8671 147.133 59.7363 147.584 59.4747V57.0985ZM156.875 61.0007L155.317 58.7662C155.251 58.7735 155.153 58.7771 155.022 58.7771H153.3V61.0007H151.883V53.3707H155.022C155.684 53.3707 156.258 53.4797 156.745 53.6977C157.239 53.9157 157.617 54.2282 157.878 54.6351C158.14 55.042 158.271 55.5253 158.271 56.0848C158.271 56.6589 158.129 57.153 157.846 57.5672C157.569 57.9814 157.17 58.2902 156.647 58.4937L158.401 61.0007H156.875ZM156.843 56.0848C156.843 55.5979 156.683 55.2237 156.363 54.9621C156.043 54.7005 155.575 54.5697 154.957 54.5697H153.3V57.6108H154.957C155.575 57.6108 156.043 57.48 156.363 57.2184C156.683 56.9495 156.843 56.5717 156.843 56.0848ZM164.51 61.1097C163.733 61.1097 163.032 60.9426 162.407 60.6083C161.782 60.2668 161.291 59.7981 160.935 59.2022C160.579 58.5991 160.401 57.9269 160.401 57.1857C160.401 56.4445 160.579 55.776 160.935 55.1801C161.291 54.577 161.782 54.1083 162.407 53.774C163.032 53.4325 163.733 53.2617 164.51 53.2617C165.288 53.2617 165.989 53.4325 166.614 53.774C167.239 54.1083 167.729 54.5733 168.086 55.1692C168.442 55.7651 168.62 56.4372 168.62 57.1857C168.62 57.9342 168.442 58.6063 168.086 59.2022C167.729 59.7981 167.239 60.2668 166.614 60.6083C165.989 60.9426 165.288 61.1097 164.51 61.1097ZM164.51 59.8671C165.019 59.8671 165.477 59.7545 165.884 59.5292C166.291 59.2967 166.61 58.9769 166.843 58.57C167.075 58.1558 167.192 57.6944 167.192 57.1857C167.192 56.677 167.075 56.2192 166.843 55.8123C166.61 55.3981 166.291 55.0784 165.884 54.8531C165.477 54.6206 165.019 54.5043 164.51 54.5043C164.002 54.5043 163.544 54.6206 163.137 54.8531C162.73 55.0784 162.41 55.3981 162.178 55.8123C161.945 56.2192 161.829 56.677 161.829 57.1857C161.829 57.6944 161.945 58.1558 162.178 58.57C162.41 58.9769 162.73 59.2967 163.137 59.5292C163.544 59.7545 164.002 59.8671 164.51 59.8671ZM174.743 61.1097C173.973 61.1097 173.275 60.9426 172.65 60.6083C172.033 60.2668 171.546 59.7981 171.19 59.2022C170.841 58.6063 170.667 57.9342 170.667 57.1857C170.667 56.4372 170.845 55.7651 171.201 55.1692C171.557 54.5733 172.044 54.1083 172.661 53.774C173.286 53.4325 173.984 53.2617 174.754 53.2617C175.379 53.2617 175.949 53.3707 176.465 53.5887C176.981 53.8067 177.417 54.1228 177.773 54.537L176.858 55.3981C176.306 54.8022 175.626 54.5043 174.82 54.5043C174.296 54.5043 173.828 54.6206 173.413 54.8531C172.999 55.0784 172.676 55.3945 172.443 55.8014C172.211 56.2083 172.095 56.6698 172.095 57.1857C172.095 57.7016 172.211 58.1631 172.443 58.57C172.676 58.9769 172.999 59.2967 173.413 59.5292C173.828 59.7545 174.296 59.8671 174.82 59.8671C175.626 59.8671 176.306 59.5655 176.858 58.9624L177.773 59.8344C177.417 60.2486 176.978 60.5647 176.455 60.7827C175.939 61.0007 175.368 61.1097 174.743 61.1097ZM185.944 59.8126V61.0007H180.221V53.3707H185.791V54.5588H181.638V56.5426H185.322V57.7089H181.638V59.8126H185.944ZM193.605 61.0007L192.047 58.7662C191.981 58.7735 191.883 58.7771 191.752 58.7771H190.03V61.0007H188.613V53.3707H191.752C192.414 53.3707 192.988 53.4797 193.475 53.6977C193.969 53.9157 194.347 54.2282 194.608 54.6351C194.87 55.042 195.001 55.5253 195.001 56.0848C195.001 56.6589 194.859 57.153 194.576 57.5672C194.299 57.9814 193.9 58.2902 193.377 58.4937L195.131 61.0007H193.605ZM193.573 56.0848C193.573 55.5979 193.413 55.2237 193.093 54.9621C192.773 54.7005 192.305 54.5697 191.687 54.5697H190.03V57.6108H191.687C192.305 57.6108 192.773 57.48 193.093 57.2184C193.413 56.9495 193.573 56.5717 193.573 56.0848ZM200.861 58.3084V61.0007H199.444V58.3302L196.447 53.3707H197.962L200.196 57.0876L202.453 53.3707H203.848L200.861 58.3084Z" fill="#D0A039"/>
<path d="M88.1605 8.63636H97.642L107.656 33.0682H108.082L118.097 8.63636H127.578V45H120.121V21.3317H119.819L110.408 44.8224H105.33L95.9197 21.2429H95.6179V45H88.1605V8.63636ZM141.547 45.5149C139.807 45.5149 138.257 45.2131 136.895 44.6094C135.534 43.9938 134.457 43.0883 133.664 41.8928C132.883 40.6854 132.492 39.1821 132.492 37.3828C132.492 35.8677 132.77 34.5952 133.327 33.5653C133.883 32.5355 134.64 31.7069 135.599 31.0795C136.558 30.4522 137.647 29.9787 138.866 29.6591C140.097 29.3395 141.388 29.1146 142.737 28.9844C144.323 28.8187 145.602 28.6648 146.572 28.5227C147.543 28.3688 148.247 28.1439 148.685 27.848C149.123 27.5521 149.342 27.1141 149.342 26.5341V26.4276C149.342 25.303 148.987 24.433 148.277 23.8175C147.578 23.2019 146.584 22.8942 145.294 22.8942C143.933 22.8942 142.849 23.196 142.045 23.7997C141.24 24.3916 140.707 25.1373 140.447 26.0369L133.451 25.4688C133.806 23.8116 134.504 22.3793 135.546 21.1719C136.588 19.9527 137.931 19.0175 139.577 18.3665C141.234 17.7036 143.151 17.3722 145.329 17.3722C146.845 17.3722 148.295 17.5497 149.68 17.9048C151.076 18.2599 152.313 18.8104 153.39 19.5561C154.479 20.3018 155.338 21.2607 155.965 22.4325C156.592 23.5926 156.906 24.9834 156.906 26.6051V45H149.733V41.218H149.52C149.082 42.0703 148.496 42.822 147.762 43.473C147.028 44.1122 146.146 44.6153 145.116 44.9822C144.086 45.3374 142.897 45.5149 141.547 45.5149ZM143.714 40.2947C144.826 40.2947 145.809 40.0758 146.661 39.6378C147.513 39.188 148.182 38.5843 148.667 37.8267C149.153 37.0691 149.395 36.2109 149.395 35.2521V32.358C149.159 32.5118 148.833 32.6539 148.419 32.7841C148.016 32.9025 147.561 33.0149 147.052 33.1214C146.543 33.2161 146.034 33.3049 145.525 33.3878C145.016 33.4588 144.554 33.5239 144.14 33.5831C143.252 33.7133 142.477 33.9205 141.814 34.2045C141.151 34.4886 140.636 34.8733 140.269 35.3587C139.902 35.8321 139.719 36.424 139.719 37.1342C139.719 38.1641 140.091 38.9512 140.837 39.4957C141.595 40.0284 142.554 40.2947 143.714 40.2947ZM162.774 45V17.7273H170.107V22.4858H170.392C170.889 20.7931 171.723 19.5147 172.895 18.6506C174.067 17.7746 175.416 17.3366 176.943 17.3366C177.322 17.3366 177.731 17.3603 178.169 17.4077C178.606 17.455 178.991 17.5201 179.323 17.603V24.3146C178.968 24.2081 178.476 24.1134 177.849 24.0305C177.222 23.9477 176.647 23.9062 176.127 23.9062C175.014 23.9062 174.02 24.1489 173.144 24.6342C172.28 25.1077 171.593 25.7706 171.084 26.6229C170.587 27.4751 170.338 28.4576 170.338 29.5703V45H162.774ZM199.107 17.7273V23.4091H182.683V17.7273H199.107ZM186.412 11.1932H193.975V36.6193C193.975 37.3177 194.082 37.8622 194.295 38.2528C194.508 38.6316 194.804 38.898 195.183 39.0518C195.574 39.2057 196.023 39.2827 196.532 39.2827C196.887 39.2827 197.243 39.2531 197.598 39.1939C197.953 39.1229 198.225 39.0696 198.414 39.0341L199.604 44.6626C199.225 44.781 198.693 44.9171 198.006 45.071C197.319 45.2367 196.485 45.3374 195.502 45.3729C193.68 45.4439 192.082 45.2012 190.708 44.6449C189.347 44.0885 188.288 43.2244 187.53 42.0526C186.773 40.8807 186.4 39.401 186.412 37.6136V11.1932Z" fill="#3DA3B1"/>
</svg>
